<?xml version="1.0" encoding="utf-8"?>
<!-- Generator: Adobe Illustrator 23.1.0, SVG Export Plug-In . SVG Version: 6.00 Build 0)  -->
<svg version="1.1" xmlns="http://www.w3.org/2000/svg" xmlns:xlink="http://www.w3.org/1999/xlink" x="0px" y="0px"
	 viewBox="0 0 595.3 595.3" enable-background="new 0 0 595.3 595.3" xml:space="preserve">
<g id="Capa_1">
</g>
<g id="Capa_2">
	
		<rect x="90.8" y="92.7" transform="matrix(0.7071 -0.7071 0.7071 0.7071 -123.7196 296.0466)" fill="#F7A810" stroke="#F2CA71" stroke-width="4.8053" stroke-linecap="round" stroke-linejoin="round" width="409.4" height="409.4"/>
	<g>
		<g>
			<polyline fill="none" stroke="#F2CA71" stroke-width="2.0868" stroke-linecap="round" stroke-linejoin="round" points="
				541.9,288.5 550.8,297.4 541.9,306.2 			"/>
			
				<line fill="none" stroke="#F2CA71" stroke-width="2.0868" stroke-linecap="round" stroke-linejoin="round" stroke-dasharray="25.8459,25.8459" x1="523.7" y1="324.5" x2="313.5" y2="534.7"/>
			<polyline fill="none" stroke="#F2CA71" stroke-width="2.0868" stroke-linecap="round" stroke-linejoin="round" points="
				304.4,543.8 295.5,552.7 286.6,543.8 			"/>
			
				<line fill="none" stroke="#F2CA71" stroke-width="2.0868" stroke-linecap="round" stroke-linejoin="round" stroke-dasharray="25.8459,25.8459" x1="268.4" y1="525.5" x2="58.2" y2="315.4"/>
			<polyline fill="none" stroke="#F2CA71" stroke-width="2.0868" stroke-linecap="round" stroke-linejoin="round" points="
				49.1,306.2 40.2,297.4 49.1,288.5 			"/>
			
				<line fill="none" stroke="#F2CA71" stroke-width="2.0868" stroke-linecap="round" stroke-linejoin="round" stroke-dasharray="25.8459,25.8459" x1="67.3" y1="270.2" x2="277.5" y2="60.1"/>
			<polyline fill="none" stroke="#F2CA71" stroke-width="2.0868" stroke-linecap="round" stroke-linejoin="round" points="
				286.6,50.9 295.5,42.1 304.4,50.9 			"/>
			
				<line fill="none" stroke="#F2CA71" stroke-width="2.0868" stroke-linecap="round" stroke-linejoin="round" stroke-dasharray="25.8459,25.8459" x1="322.6" y1="69.2" x2="532.8" y2="279.4"/>
		</g>
	</g>
	
		<rect x="125.9" y="127.8" transform="matrix(0.7071 -0.7071 0.7071 0.7071 -123.7196 296.0466)" fill="#F2CA71" stroke="#F7A810" stroke-width="3.7303" stroke-linecap="round" stroke-linejoin="round" width="339.2" height="339.2"/>
	<g>
		<path fill="#68959C" stroke="#F2CA71" stroke-width="2.8339" stroke-linejoin="round" stroke-miterlimit="10" d="M295.5,445
			c0,0,115.2-57.4,129.8-132.3c0,0,24.3-88.6-46.1-134.8c0,0-35.2-28.3-83.7-28.3s-83.7,28.3-83.7,28.3
			c-70.3,46.2-46.1,134.8-46.1,134.8C180.3,387.7,295.5,445,295.5,445z"/>
		<path fill="#398087" stroke="#F2CA71" stroke-width="1.417" stroke-linejoin="round" stroke-miterlimit="10" d="M271.2,336.7
			c0,0,8.5-84.8-76.4-67.6C194.8,269.1,194.4,356.4,271.2,336.7z"/>
		<path fill="#398087" stroke="#F2CA71" stroke-width="1.417" stroke-linejoin="round" stroke-miterlimit="10" d="M315.7,336.7
			c0,0-8.5-84.8,76.4-67.6C392.1,269.1,392.5,356.4,315.7,336.7z"/>
		
			<path fill="none" stroke="#F2CA71" stroke-width="2.8339" stroke-linecap="round" stroke-linejoin="round" stroke-miterlimit="10" d="
			M283.3,384.1c0,0,7.7,15.6,27.9,0"/>
		
			<path opacity="0.5" fill="none" stroke="#398087" stroke-width="2.088" stroke-linecap="round" stroke-linejoin="round" stroke-miterlimit="10" d="
			M284.1,381.8c0,0,7.5,15.6,26.9,0"/>
		<path fill="#587B7F" d="M273.6,154c0,0-104.6,17.2-109.1,112.8c0,0-11.3,63.1,47.6,117.3l30.7,25.7l25.8,17.8l24.9,14.5
			c0,0-141-84.8-113.1-196.8C180.3,245.2,188.9,197.9,273.6,154z"/>
		<path fill="#89A7AA" d="M317.4,154c0,0,104.6,17.2,109.1,112.8c0,0,11.3,63.1-47.6,117.3l-30.7,25.7l-25.8,17.8l-24.9,14.5
			c0,0,151.5-76.8,118.6-196.2C416.2,245.9,409.2,185.2,317.4,154z"/>
	</g>
</g>
</svg>
